<svg width="117" height="35" viewBox="0 0 117 35" fill="none" xmlns="http://www.w3.org/2000/svg">
<path d="M16.251 12.2273C14.7782 11.2493 12.9574 10.7537 10.8018 10.7537C8.64623 10.7537 6.82538 11.2359 5.36601 12.2139C3.90665 13.1918 2.79539 14.5449 2.05901 16.273C1.30925 18.0146 0.947754 20.0241 0.947754 22.3283C0.947754 24.6325 1.30925 26.642 2.04562 28.3835C2.782 30.1251 3.87987 31.4781 5.33923 32.4427C6.7986 33.4206 8.61946 33.9029 10.8018 33.9029C12.9842 33.9029 14.7515 33.4206 16.2242 32.4695C17.6836 31.5183 18.7948 30.1653 19.5446 28.4237C20.2944 26.6822 20.6693 24.6459 20.6693 22.3417C20.6693 20.0375 20.3078 18.028 19.5714 16.2998C18.835 14.5717 17.7371 13.2186 16.2644 12.2407L16.251 12.2273ZM14.4301 25.9186C14.2293 27.0171 13.841 27.9012 13.2787 28.5711C12.7164 29.2409 11.8997 29.5758 10.8018 29.5758C9.70394 29.5758 8.9274 29.2409 8.35168 28.5711C7.77597 27.9012 7.3877 27.0171 7.17348 25.9186C6.95926 24.82 6.85215 23.6277 6.85215 22.3283C6.85215 21.0288 6.95926 19.8499 7.17348 18.7514C7.3877 17.6529 7.77597 16.7553 8.35168 16.0855C8.9274 15.4157 9.7441 15.0807 10.8018 15.0807C11.8595 15.0807 12.7164 15.4157 13.2787 16.0855C13.841 16.7553 14.2159 17.6395 14.4301 18.7514C14.631 19.8499 14.7381 21.0422 14.7381 22.3283C14.7381 23.6144 14.631 24.82 14.4301 25.9186Z" fill="black"/>
<path d="M41.394 11.9579L41.2334 11.556C40.8183 11.4221 40.3765 11.3283 39.9079 11.2613C39.4393 11.1943 38.9171 11.1675 38.3682 11.1675C37.8193 11.1675 37.5649 11.1809 37.1498 11.2211C36.7348 11.2613 36.3867 11.3149 36.0921 11.3819L32.4102 17.4237L29.3576 12.7483C28.9694 12.1723 28.5811 11.7302 28.1526 11.4355C27.7376 11.1273 27.1619 10.98 26.4389 10.98C25.7159 10.98 25.1804 11.0872 24.4708 11.2881C23.7612 11.4891 23.1051 11.824 22.5026 12.2661L28.8355 22.0589L21.9805 32.7092L22.1813 33.1111C22.5963 33.2718 23.0516 33.3924 23.5737 33.4594C24.0825 33.5264 24.6314 33.5532 25.1804 33.5532C25.7293 33.5532 26.0238 33.5398 26.4389 33.4996C26.8539 33.4594 27.202 33.4058 27.4698 33.3388L31.6337 26.4128L35.2085 31.959C35.57 32.535 35.985 32.9637 36.4536 33.2584C36.9222 33.5532 37.5113 33.7005 38.2343 33.7005C38.9573 33.7005 39.5598 33.58 40.2694 33.3254C40.979 33.0709 41.6082 32.7628 42.1706 32.4011L35.1415 21.6436L41.3673 11.9713L41.394 11.9579Z" fill="black"/>
<path d="M51.2094 12.467C50.4596 11.6364 49.4287 11.2345 48.1166 11.2345H47.34C46.925 11.2345 46.4162 11.2479 45.8137 11.2747C45.2112 11.3015 44.5954 11.3551 43.9661 11.4354C43.8991 11.7838 43.8322 12.1455 43.792 12.4938C43.7519 12.8421 43.7251 13.1904 43.7251 13.5253C43.7251 14.2085 43.8054 14.865 43.9661 15.508H44.5686C45.3183 15.508 45.8405 15.7223 46.1217 16.151C46.4028 16.5797 46.5501 17.1692 46.5501 17.9462V33.312C46.9785 33.379 47.4471 33.4326 47.9559 33.4728C48.4647 33.4996 48.9735 33.513 49.4688 33.513C49.9642 33.513 50.473 33.4996 50.9817 33.4728C51.4905 33.446 51.9457 33.3924 52.334 33.312V15.8429C52.334 14.4095 51.9591 13.2842 51.2094 12.467Z" fill="black"/>
<path d="M45.6917 7.60369C45.9863 7.79124 46.4147 7.952 46.9637 8.05917C47.5126 8.16634 48.0482 8.21993 48.5569 8.21993C49.0657 8.21993 49.6146 8.16634 50.1636 8.04577C50.7259 7.9252 51.1409 7.77784 51.4221 7.60369C51.5694 7.26877 51.6765 6.89367 51.7702 6.47838C51.8505 6.06308 51.8907 5.68798 51.8907 5.32627C51.8907 4.96457 51.8505 4.58946 51.7702 4.17417C51.6899 3.75888 51.5694 3.38377 51.4221 3.02206C51.1409 2.84791 50.7259 2.70055 50.1636 2.59338C49.6012 2.48621 49.0657 2.43262 48.5569 2.43262C48.0482 2.43262 47.5126 2.48621 46.9771 2.59338C46.4415 2.70055 46.0131 2.84791 45.6917 3.02206C45.5445 3.37038 45.4374 3.75888 45.3436 4.16077C45.2633 4.56267 45.2231 4.95117 45.2231 5.32627C45.2231 5.70138 45.2633 6.06308 45.3436 6.47838C45.424 6.89367 45.5445 7.26877 45.6917 7.60369Z" fill="black"/>
<path d="M76.072 29.1588C75.8712 28.5023 75.7775 27.7923 75.7775 27.0019V4.37516C75.7775 3.07569 75.5498 2.16473 75.0946 1.62887C74.6394 1.093 73.8227 0.825073 72.6713 0.825073H70.4488L70.1676 1.1064V12.172C69.9802 12.0782 69.8061 11.971 69.6187 11.8772C68.4405 11.2744 67.115 10.9663 65.6422 10.9663C64.1695 10.9663 62.7101 11.3949 61.398 12.2523C60.0859 13.1097 59.0149 14.4092 58.2115 16.1239C57.4082 17.8521 56.9932 19.9955 56.9932 22.5677C56.9932 25.1398 57.2743 26.7474 57.8366 28.4488C58.399 30.1501 59.2692 31.4764 60.4207 32.4275C61.5721 33.3787 63.0181 33.861 64.7318 33.861C66.4456 33.861 67.4497 33.5394 68.6145 32.883C69.5383 32.3606 70.3283 31.7309 71.0111 30.9941C71.1182 31.1951 71.2387 31.4094 71.3726 31.597C72.1759 32.7892 73.4344 33.4591 75.1348 33.6064C75.5365 33.3251 75.9113 32.8964 76.2996 32.307C76.6745 31.7175 76.9155 31.1683 77.036 30.6458C76.6076 30.2975 76.2996 29.7884 76.0988 29.132L76.072 29.1588ZM68.1191 28.7167C67.4095 29.0516 66.7535 29.2258 66.1376 29.2258C65.5217 29.2258 64.9996 28.998 64.4908 28.5559C63.982 28.1005 63.5804 27.3904 63.2858 26.4259C62.9913 25.4479 62.844 24.2021 62.844 22.6481C62.844 21.0941 62.9913 19.741 63.2992 18.6693C63.6072 17.5842 64.0222 16.767 64.5712 16.2177C65.1201 15.6685 65.7761 15.3871 66.5393 15.3871C67.3024 15.3871 68.3735 15.6685 69.3241 16.2311C69.5919 16.3919 69.8597 16.5526 70.1274 16.7268V27.0153C69.4848 27.8191 68.8154 28.3952 68.1058 28.7301L68.1191 28.7167Z" fill="black"/>
<path d="M94.9503 12.0137C93.6248 11.1831 91.9914 10.7678 90.0634 10.7678C88.1354 10.7678 86.0736 11.2769 84.6544 12.3084C83.2486 13.34 82.1909 14.7332 81.5214 16.4881C80.8386 18.2431 80.5039 20.2258 80.5039 22.4362C80.5039 24.6466 80.6512 25.3299 80.9457 26.7097C81.2403 28.0896 81.749 29.3086 82.4586 30.3938C83.1682 31.4789 84.1456 32.3229 85.364 32.9525C86.5824 33.5821 88.122 33.8903 89.9697 33.8903C91.8173 33.8903 93.0625 33.6759 94.5754 33.2338C96.0883 32.8051 97.3736 32.1889 98.4447 31.4119C98.3644 30.8225 98.1903 30.1928 97.9092 29.5364C97.628 28.88 97.2531 28.3173 96.8113 27.8752C95.9009 28.3039 94.9503 28.6656 93.9595 28.9469C92.9687 29.2283 91.9378 29.3756 90.8801 29.3756C89.8224 29.3756 88.671 29.0809 88.0283 28.5049C87.3723 27.9288 86.9305 27.1384 86.7029 26.1471C86.5556 25.5308 86.4619 24.861 86.4083 24.1644H98.5786C98.7393 23.4811 98.8598 22.8515 98.9267 22.2755C98.9936 21.6994 99.0338 20.976 99.0338 20.1186C99.0338 18.3503 98.6857 16.7561 97.9895 15.3494C97.2933 13.9428 96.2757 12.8175 94.9503 11.9869V12.0137ZM93.6382 20.1454H86.3815C86.4619 18.6182 86.743 17.4125 87.225 16.5417C87.8007 15.47 88.7379 14.9341 90.0099 14.9341C91.2818 14.9341 91.6031 15.1485 92.1253 15.5772C92.6608 16.0059 93.0357 16.5685 93.2767 17.2785C93.5177 17.9886 93.6248 18.7522 93.6248 19.5961V20.1454H93.6382Z" fill="black"/>
<path d="M104.561 5.80961C104.508 5.72924 104.454 5.64885 104.414 5.56847L104.173 5.13979C104.053 4.92544 103.959 4.77808 103.905 4.6977C103.852 4.63072 103.771 4.56373 103.664 4.52355C103.852 4.45656 104.039 4.34939 104.2 4.18863C104.361 4.02787 104.441 3.80013 104.441 3.5188C104.441 3.23748 104.32 2.87577 104.079 2.67482C103.838 2.47387 103.49 2.3667 103.022 2.3667C102.553 2.3667 102.566 2.3667 102.299 2.3667C102.031 2.3667 101.777 2.3667 101.549 2.39349L101.509 2.43368V6.21151C101.629 6.2517 101.763 6.2651 101.91 6.2651C102.058 6.2651 102.192 6.2517 102.312 6.21151V4.76468H102.781C102.901 4.76468 103.008 4.79148 103.075 4.85846C103.156 4.91205 103.223 4.99242 103.276 5.0862L103.678 5.82301C103.745 5.97037 103.825 6.07754 103.905 6.15792C103.986 6.2383 104.079 6.27849 104.213 6.27849C104.347 6.27849 104.441 6.2517 104.535 6.18472C104.628 6.11773 104.695 6.05075 104.749 5.98377C104.682 5.94358 104.628 5.8766 104.575 5.79622L104.561 5.80961ZM103.477 3.96089C103.37 4.06806 103.182 4.13505 102.955 4.13505H102.459C102.406 4.13505 102.366 4.13505 102.326 4.13505V2.99634H103.022C103.236 2.99634 103.397 3.04992 103.504 3.17049C103.611 3.29106 103.651 3.41163 103.651 3.55899C103.651 3.70635 103.597 3.85372 103.477 3.96089Z" fill="black"/>
<path d="M106.328 2.36758C105.98 1.77813 105.511 1.30925 104.922 0.960941C104.333 0.612631 103.677 0.438477 102.941 0.438477C102.204 0.438477 101.561 0.612631 100.972 0.960941C100.383 1.30925 99.9147 1.77813 99.5666 2.36758C99.2185 2.95703 99.0444 3.61346 99.0444 4.35027C99.0444 5.08708 99.2185 5.73011 99.5666 6.31956C99.9147 6.90901 100.383 7.37789 100.972 7.7262C101.561 8.07451 102.218 8.24867 102.941 8.24867C103.664 8.24867 104.333 8.07451 104.922 7.7262C105.511 7.37789 105.98 6.90901 106.328 6.31956C106.676 5.73011 106.85 5.07368 106.85 4.35027C106.85 3.62685 106.676 2.95703 106.328 2.36758ZM105.578 5.90427C105.31 6.37315 104.949 6.74825 104.494 7.02958C104.038 7.31091 103.516 7.44487 102.941 7.44487C102.365 7.44487 101.856 7.31091 101.401 7.02958C100.946 6.74825 100.584 6.37315 100.316 5.90427C100.049 5.43539 99.9147 4.91293 99.9147 4.33687C99.9147 3.76082 100.049 3.23836 100.316 2.76948C100.584 2.3006 100.946 1.92549 101.401 1.64417C101.856 1.36284 102.378 1.21548 102.941 1.21548C103.503 1.21548 104.038 1.36284 104.494 1.64417C104.949 1.92549 105.31 2.3006 105.578 2.76948C105.846 3.23836 105.98 3.76082 105.98 4.33687C105.98 4.91293 105.846 5.42199 105.578 5.90427Z" fill="black"/>
</svg>
