<svg xmlns="http://www.w3.org/2000/svg" xmlns:xlink="http://www.w3.org/1999/xlink" id="Layer_1" x="0px" y="0px" viewBox="0 0 172 34" style="enable-background:new 0 0 172 34;" xml:space="preserve">  <style type="text/css">	.st0{fill:#FFFFFF;}	.st1{clip-path:url(#SVGID_00000067206995765592240410000017823481112728738957_);fill:#FFFFFF;}</style>  <g>	<path class="st0" d="M55.1,33.6v-0.3c0.7,0,1.2-0.2,1.7-0.4c0.5-0.3,0.8-0.5,0.9-0.9c0.1-0.2,0.2-0.5,0.2-0.8  c0-0.3,0.1-0.6,0.1-0.9c0-1,0-2,0-3s0-1.9,0-2.9v-6.7c-0.5,1.2-1,2.2-1.4,3.2c-0.4,1-0.9,1.9-1.3,2.9c-0.4,0.9-0.9,1.9-1.3,2.8  c-0.4,1-0.9,2-1.4,3.2c-0.1,0.2-0.2,0.4-0.3,0.7c-0.1,0.3-0.3,0.7-0.4,1c-0.1,0.4-0.3,0.7-0.4,1c-0.1,0.3-0.2,0.5-0.2,0.6h-0.1  c-0.5-1.2-1-2.3-1.5-3.5c-0.5-1.1-1-2.3-1.5-3.3c-0.5-1.1-0.9-2.1-1.3-3c-0.4-0.9-0.8-1.8-1.1-2.5c-0.3-0.7-0.6-1.3-0.8-1.8  c-0.2-0.5-0.4-0.8-0.4-1c0,1,0,2,0,2.8c0,0.8,0,1.6,0,2.4c0,0.8,0,1.6,0,2.5c0,0.9,0,1.9,0,3c0,0.7,0,1.4,0.1,1.9  c0,0.5,0.2,1,0.4,1.4c0.2,0.4,0.5,0.7,0.9,0.9c0.4,0.2,0.9,0.4,1.6,0.5v0.2h-6.2v-0.2c0.6-0.1,1-0.3,1.3-0.5s0.6-0.5,0.8-0.9  c0.2-0.4,0.4-0.8,0.4-1.4c0.1-0.6,0.2-1.2,0.2-2c0-0.7,0.1-1.5,0.1-2.4c0-0.9,0-1.9,0-3c0-0.5,0-0.8,0-1.2c0-0.3,0-0.6,0-0.9  c0-0.3,0-0.6,0-0.9c0-0.3,0-0.7,0-1.2c0-0.4-0.1-0.8-0.3-1.1c-0.2-0.3-0.4-0.5-0.6-0.6c-0.2-0.2-0.5-0.3-0.8-0.3  c-0.3-0.1-0.5-0.1-0.7-0.2v-0.2h5l5.6,12.8c0.7-1.5,1.4-3,2-4.5c0.7-1.5,1.3-2.8,1.8-4c0.5-1.2,1-2.2,1.3-3  c0.3-0.8,0.5-1.3,0.6-1.4h5v0.2c-0.6,0-1.1,0.1-1.5,0.4c-0.3,0.3-0.6,0.6-0.7,0.9c-0.1,0.3-0.2,0.7-0.2,1.3c0,0.6-0.1,1.1-0.1,1.7  c0,0.8,0,1.5,0,2.2c0,0.7,0,1.4,0,2.1c0,0.8,0,1.7,0,2.6c0,0.8,0,1.7,0,2.6c0,0.3,0,0.6,0.1,0.9c0,0.3,0.1,0.5,0.2,0.7  c0,0,0.1,0.1,0.2,0.2c0.1,0.1,0.2,0.2,0.4,0.4c0.2,0.1,0.4,0.3,0.7,0.4c0.3,0.1,0.6,0.2,1,0.2v0.2H55.1z"></path>	<path class="st0" d="M76.3,33.6v-0.2c0,0,0.2,0,0.3,0c0.2,0,0.4-0.1,0.6-0.2c0.2-0.1,0.4-0.2,0.5-0.3c0.1-0.1,0.2-0.3,0.2-0.5  c0-0.1,0-0.4-0.1-0.7c-0.1-0.3-0.2-0.7-0.4-1.2c-0.2-0.5-0.3-1-0.5-1.5c-0.2-0.6-0.4-1.2-0.7-1.8H70c-0.2,0.6-0.5,1.2-0.7,1.7  c-0.2,0.5-0.4,1.1-0.7,1.6c-0.3,0.9-0.5,1.4-0.5,1.8c0,0.2,0.1,0.4,0.2,0.5c0.1,0.1,0.3,0.2,0.5,0.3c0.2,0.1,0.4,0.2,0.6,0.2  c0.2,0,0.4,0.1,0.6,0.1v0.2h-5v-0.3c0.4,0,0.8-0.2,1.1-0.3c0.3-0.2,0.5-0.3,0.5-0.4c0.1-0.1,0.3-0.4,0.5-0.8c0.3-0.4,0.6-1,0.9-1.8  c0.3-0.7,0.7-1.6,1.1-2.5c0.4-0.9,0.8-1.9,1.3-2.9c0.4-1,0.9-2,1.3-3c0.4-1,0.8-2,1.2-2.8l-0.2-0.5c0.3-0.1,0.5-0.3,0.8-0.4  c0.2-0.2,0.4-0.4,0.6-0.5c0.2-0.2,0.3-0.4,0.4-0.5c0.1-0.2,0.2-0.3,0.3-0.4H75c0.5,1.3,1,2.5,1.4,3.7c0.4,1.2,0.9,2.3,1.3,3.4  c0.4,1.1,0.8,2.1,1.2,3.2s0.8,2,1.1,3c0.2,0.5,0.3,0.9,0.5,1.2c0.1,0.3,0.3,0.7,0.5,1.1c0,0.1,0.1,0.2,0.2,0.3  c0.1,0.2,0.3,0.3,0.4,0.5s0.4,0.3,0.7,0.4s0.6,0.2,0.9,0.2v0.3H76.3z M73.3,19.3c-0.1,0.2-0.2,0.5-0.4,1c-0.2,0.4-0.4,1-0.7,1.6  c-0.3,0.6-0.6,1.3-0.9,2.1c-0.3,0.8-0.7,1.7-1.1,2.6h5.9c-0.3-0.7-0.5-1.4-0.8-2.1c-0.3-0.7-0.5-1.4-0.8-2s-0.5-1.3-0.7-1.8  C73.6,20.1,73.4,19.6,73.3,19.3z"></path>	<path class="st0" d="M92.3,17.1c-0.4,0.1-0.7,0.4-0.9,0.8c-0.1,0.3-0.2,0.6-0.2,1c0,0.4,0,0.8,0,1.2c0,0.4,0,0.8,0,1.2  c0,0.4,0,0.8,0,1.2s0,0.8,0,1.2c0,0.4,0,0.9,0,1.3v5.5c0,0.5-0.1,1-0.4,1.3c-0.3,0.4-0.6,0.7-1,1c-0.5,0.4-1,0.7-1.6,0.9  c-0.5,0.2-1,0.3-1.5,0.3c-0.3,0-0.5,0-0.7-0.1c-0.2-0.1-0.5-0.2-0.7-0.3c-0.2-0.1-0.4-0.3-0.5-0.5c-0.1-0.2-0.2-0.5-0.2-0.8  c0-0.4,0.1-0.7,0.4-0.9c0.3-0.2,0.6-0.4,1-0.4c0.3,0,0.6,0.1,0.8,0.3c0.2,0.2,0.3,0.5,0.3,0.8c0,0.4-0.1,0.6-0.3,0.8  c-0.2,0.2-0.5,0.3-0.8,0.3v0.1c0.1,0.1,0.2,0.2,0.3,0.2s0.3,0.1,0.4,0.1c0.4,0,0.7-0.1,1-0.4c0.2-0.3,0.4-0.6,0.5-0.9  c0.1-0.3,0.2-0.7,0.2-1.2c0-0.4,0.1-0.9,0.1-1.3c0-0.2,0-0.5,0-0.9c0-0.4,0-0.8,0-1.2c0-0.5,0-0.9,0-1.4c0-0.5,0-0.9,0-1.4v-4.6  c0-0.3,0-0.6,0-0.9c0-0.3,0-0.6,0-0.8c0-0.3-0.1-0.5-0.1-0.7c0-0.2-0.1-0.4-0.2-0.5c-0.2-0.3-0.5-0.4-0.9-0.5  c-0.4-0.1-0.8-0.2-1.2-0.2v-0.2h7.3v0.2C93,16.9,92.7,17,92.3,17.1z"></path>	<path class="st0" d="M111.9,28.5c-0.5,1.1-1.1,2-1.9,2.8c-0.8,0.8-1.8,1.4-2.8,1.8c-1.1,0.4-2.2,0.6-3.4,0.6  c-1.2,0-2.3-0.2-3.4-0.6c-1.1-0.4-2-1-2.8-1.8c-0.8-0.8-1.4-1.7-1.9-2.7c-0.5-1.1-0.7-2.2-0.7-3.5c0-1.4,0.2-2.6,0.7-3.6  c0.5-1.1,1.1-2,2-2.7c0.8-0.7,1.8-1.3,2.9-1.7c1.1-0.4,2.3-0.6,3.5-0.6c1.3,0,2.5,0.2,3.6,0.7c1.1,0.5,2,1.1,2.7,1.9  c0.7,0.8,1.3,1.7,1.7,2.8c0.4,1,0.6,2.1,0.6,3.3C112.6,26.3,112.4,27.4,111.9,28.5z M109.3,22.1c-0.2-1-0.6-1.9-1.1-2.7  c-0.5-0.8-1.1-1.4-1.9-1.9c-0.7-0.5-1.6-0.7-2.6-0.7c-1,0-1.9,0.2-2.7,0.7c-0.7,0.5-1.4,1.1-1.8,1.9c-0.5,0.8-0.8,1.7-1.1,2.7  c-0.2,1-0.3,2-0.3,3c0,1.1,0.1,2.1,0.4,3.1c0.3,1,0.6,1.9,1.1,2.6c0.5,0.8,1.1,1.4,1.9,1.8c0.7,0.5,1.6,0.7,2.6,0.7  c1,0,1.9-0.3,2.6-0.8c0.7-0.5,1.3-1.2,1.8-1.9c0.5-0.8,0.9-1.7,1.1-2.7c0.2-1,0.4-2,0.4-3C109.7,24.1,109.6,23.1,109.3,22.1z"></path>	<path class="st0" d="M126.7,33.6c-0.1-0.1-0.2-0.2-0.3-0.3c-0.1-0.1-0.1-0.2-0.2-0.2c-0.1-0.1-0.2-0.2-0.3-0.4  c-0.1-0.2-0.3-0.5-0.6-0.8c-0.3-0.4-0.6-0.8-0.8-1.2s-0.5-0.7-0.7-1.1c-0.2-0.3-0.5-0.7-0.8-1.1c-0.3-0.4-0.6-0.8-1-1.2  c-0.3-0.4-0.7-0.7-1-1c-0.4-0.3-0.8-0.5-1.2-0.6c-0.3-0.1-0.5-0.1-0.7-0.1c-0.1,0-0.3,0-0.5,0c0,1,0,1.9,0,2.7c0,0.8,0,1.4,0,1.9  c0,0.5,0,0.9,0,1.3c0,0.4,0.1,0.7,0.3,0.9c0.1,0.2,0.4,0.4,0.7,0.6c0.4,0.2,0.9,0.3,1.5,0.4v0.2h-7.6v-0.2c0.4-0.1,0.8-0.2,1.1-0.3  c0.4-0.1,0.6-0.3,0.9-0.6c0.1-0.1,0.1-0.2,0.2-0.4c0-0.2,0.1-0.4,0.1-0.6c0-0.2,0-0.5,0.1-0.8c0-0.3,0-0.5,0-0.8c0-0.2,0-0.5,0-0.9  c0-0.4,0-0.8,0-1.2c0-0.4,0-0.9,0-1.4c0-0.5,0-0.9,0-1.4v-4.6c0-0.3,0-0.6,0-0.9c0-0.3,0-0.6,0-0.8c0-0.3-0.1-0.5-0.1-0.7  c-0.1-0.2-0.1-0.4-0.2-0.5c-0.2-0.3-0.5-0.4-0.8-0.5c-0.3-0.1-0.6-0.2-1.1-0.2v-0.2c0.1,0,0.4,0,1,0c0.5,0,1.1,0,1.8,0  c0.7,0,1.4,0,2,0c0.7,0,1.2,0,1.7,0c1.1,0,2,0,2.8,0.1c0.8,0.1,1.6,0.3,2.2,0.6c0.7,0.4,1.3,0.9,1.7,1.5c0.4,0.6,0.6,1.4,0.6,2.4  c0,0.6-0.1,1.1-0.3,1.6c-0.2,0.5-0.5,0.9-0.8,1.2c-0.4,0.4-0.8,0.7-1.2,0.9c-0.5,0.3-1,0.5-1.5,0.6v0.1c0.3,0.1,0.5,0.3,0.8,0.6  c0.3,0.3,0.5,0.6,0.7,0.9c0.4,0.6,0.9,1.2,1.3,1.9c0.5,0.7,0.9,1.3,1.3,1.8c0.6,0.8,1.1,1.4,1.7,1.8c0.6,0.4,1.2,0.6,1.9,0.7v0.2  H126.7z M124.4,18.9c-0.4-0.6-1-1.1-1.7-1.5c-0.4-0.2-0.8-0.3-1.2-0.4c-0.4-0.1-0.9-0.1-1.3-0.1c-0.3,0-0.6,0-0.8,0  c-0.2,0-0.4,0-0.5,0c0,0.1,0,0.2,0,0.2c0,0.1,0,0.2,0,0.3c0,0.1,0,0.3,0,0.5c0,0.2,0,0.5,0,0.8c0,0.6,0,1.2,0,1.9c0,0.7,0,1.4,0,2  c0,0.6,0,1.2,0,1.7c0,0.5,0,0.8,0,0.9c0.6,0,1.2,0,1.8-0.1c0.6-0.1,1.1-0.2,1.6-0.3c0.5-0.2,0.9-0.4,1.3-0.6  c0.4-0.3,0.7-0.6,0.9-0.9c0.2-0.3,0.4-0.7,0.5-1.1c0.1-0.4,0.2-0.8,0.2-1.2C125,20.2,124.8,19.5,124.4,18.9z"></path>	<path class="st0" d="M149.1,22.1c-0.2-0.8-0.5-1.5-0.9-2.1c-0.4-0.7-0.9-1.2-1.5-1.7c-0.6-0.5-1.2-0.9-1.9-1.2  c-0.7-0.3-1.4-0.4-2.2-0.4c-1.1,0-2.1,0.2-2.9,0.7c-0.8,0.5-1.6,1.1-2.1,1.9c-0.6,0.8-1,1.7-1.3,2.7c-0.3,1-0.5,2.1-0.5,3.1  c0,1.1,0.2,2.2,0.5,3.2c0.3,1,0.8,1.9,1.4,2.6c0.6,0.7,1.3,1.3,2.2,1.7c0.9,0.4,1.8,0.6,2.8,0.6c0.8,0,1.6-0.2,2.3-0.4  c0.7-0.3,1.4-0.7,1.9-1.2c0.6-0.5,1-1.1,1.4-1.7c0.4-0.6,0.6-1.3,0.8-2h0.3l-0.1,5.2H149c-0.2-0.3-0.4-0.5-0.6-0.7  c-0.2-0.2-0.3-0.3-0.4-0.3c0,0-0.2,0.1-0.4,0.2c-0.3,0.2-0.6,0.3-1.1,0.5c-0.5,0.2-1,0.4-1.7,0.5c-0.7,0.2-1.5,0.2-2.3,0.2  c-1.5,0-2.8-0.2-4-0.6c-1.2-0.4-2.2-1-3-1.8c-0.8-0.8-1.5-1.7-1.9-2.7c-0.4-1.1-0.7-2.2-0.7-3.5c0-0.3,0-0.6,0.1-1  c0-0.4,0.1-0.7,0.2-1.2c0.1-0.4,0.2-0.8,0.4-1.3c0.2-0.4,0.4-0.9,0.7-1.4c0.3-0.5,0.7-1,1.2-1.5c0.5-0.5,1.1-0.9,1.7-1.3  c0.7-0.4,1.4-0.7,2.2-0.9c0.8-0.2,1.8-0.3,2.8-0.3c0.9,0,1.8,0.1,2.5,0.3c0.7,0.2,1.3,0.4,1.8,0.6c0.5,0.2,0.8,0.4,1.1,0.6  c0.3,0.2,0.4,0.3,0.4,0.3c0,0,0.1,0,0.2-0.1c0.1-0.1,0.2-0.2,0.3-0.3c0.1-0.1,0.2-0.2,0.3-0.4c0.1-0.1,0.2-0.3,0.3-0.4h0.3v5.3  L149.1,22.1z"></path>	<path class="st0" d="M166.8,33.6h-14.5v-0.2c0.4-0.1,0.8-0.2,1.1-0.3c0.3-0.1,0.6-0.3,0.8-0.6c0.1-0.1,0.1-0.2,0.2-0.4  c0-0.2,0.1-0.4,0.1-0.6c0-0.2,0.1-0.5,0.1-0.7c0-0.3,0-0.5,0-0.8c0-0.2,0-0.5,0-0.9c0-0.4,0-0.8,0-1.2c0-0.4,0-0.9,0-1.4  c0-0.5,0-0.9,0-1.4v-4.6c0-0.3,0-0.6,0-0.9c0-0.3,0-0.6,0-0.8c0-0.3-0.1-0.5-0.1-0.7c-0.1-0.2-0.1-0.4-0.2-0.5  c-0.2-0.3-0.5-0.4-0.8-0.5c-0.3-0.1-0.6-0.1-1-0.2v-0.2h13l1.6,3.9l-0.2,0.1c-1.3-1.6-2.5-2.7-3.6-3.2c-0.3-0.1-0.8-0.2-1.5-0.3  c-0.7-0.1-1.6-0.1-2.6-0.1c-0.3,0-0.7,0-1,0c-0.4,0-0.6,0.1-0.8,0.1c0,0.3-0.1,0.8-0.1,1.6c0,0.8,0,1.7,0,2.7c0,0.6,0,1.1,0,1.5  c0,0.4,0,0.7,0,1c0,0.3,0,0.5,0,0.6c0,0.1,0,0.2,0,0.3c0.1,0,0.2,0,0.5,0c0.2,0,0.5,0,0.8,0c0.3,0,0.6,0,0.9-0.1  c0.3,0,0.6-0.1,0.8-0.1c0.5-0.1,0.9-0.3,1.2-0.4c0.3-0.2,0.6-0.4,0.8-0.7c0.2-0.3,0.4-0.6,0.5-0.9c0.1-0.4,0.2-0.8,0.3-1.2h0.3v7.4  h-0.3c-0.1-0.5-0.3-1-0.6-1.6c-0.3-0.5-0.5-0.9-0.8-1.2c-0.3-0.2-0.6-0.4-0.9-0.5c-0.4-0.1-0.8-0.2-1.2-0.3c-0.2,0-0.4,0-0.6,0  c-0.2,0-0.3,0-0.5,0c-0.1,0-0.3,0-0.5,0c-0.2,0-0.4,0-0.6,0c0,0.2,0,0.5,0,1c0,0.4,0,0.9,0,1.3c0,0.2,0,0.4,0,0.7s0,0.5,0,0.8  c0,0.3,0,0.5,0,0.7c0,0.2,0,0.4,0,0.6c0,0.5,0,1,0.1,1.4c0,0.4,0.1,0.8,0.3,1c0.1,0.2,0.5,0.4,1,0.5c0.5,0.1,1.1,0.1,1.7,0.1  c0.3,0,0.6,0,1,0c0.4,0,0.9-0.1,1.3-0.1c0.5-0.1,1-0.2,1.4-0.4c0.4-0.2,0.8-0.4,1.2-0.8c0.4-0.3,0.8-0.7,1.1-1.2  c0.4-0.5,0.8-1.1,1.1-1.7l0.3,0.1L166.8,33.6z"></path></g>  <g>	<path class="st0" d="M50.2,6.9c0.1,2.8-2,5-4.7,5h-2.2c-0.2,0-0.3-0.1-0.3-0.3V2.5c0-0.2,0.1-0.3,0.3-0.3h2.1  C47.9,2.2,50.1,4.2,50.2,6.9z M49.2,7c0-2.1-1.7-3.9-3.7-3.9H44c-0.1,0-0.1,0.1-0.1,0.1v7.6c0,0.1,0,0.1,0.1,0.1h1.4  C47.5,11,49.3,9.2,49.2,7z"></path>	<path class="st0" d="M63.8,7c0,2.9-2.2,5.2-4.8,5.2S54.1,9.9,54.1,7c0-2.9,2.2-5.2,4.8-5.2S63.8,4.1,63.8,7z M62.8,7  c0-2.3-1.7-4.3-3.9-4.3C56.8,2.7,55,4.7,55,7s1.7,4.3,3.9,4.3C61.1,11.2,62.8,9.3,62.8,7z"></path>	<path class="st0" d="M72.5,8.2L76,2.2c0.1-0.1,0.2-0.1,0.2,0.1l0.9,9.3c0,0.2-0.1,0.4-0.3,0.4h-0.3c-0.2,0-0.3-0.1-0.3-0.3  l-0.6-6.5c0-0.1-0.1-0.1-0.2,0L72.5,10c0,0.1-0.1,0.1-0.2,0l-2.9-4.9c-0.1-0.1-0.2-0.1-0.2,0l-0.6,6.5c0,0.2-0.1,0.3-0.3,0.3H68  c-0.2,0-0.3-0.2-0.3-0.4l0.9-9.3c0-0.1,0.2-0.2,0.2-0.1l3.5,5.9C72.3,8.2,72.4,8.2,72.5,8.2z"></path>	<path class="st0" d="M94.2,9.3V2.5c0-0.2,0.1-0.3,0.3-0.3h0.3c0.2,0,0.3,0.1,0.3,0.3v9.4c0,0.1-0.1,0.2-0.2,0.1L89,4.7  c-0.1-0.1-0.2,0-0.2,0.1v6.8c0,0.2-0.1,0.3-0.3,0.3h-0.3c-0.2,0-0.3-0.1-0.3-0.3V2.2c0-0.1,0.1-0.2,0.2-0.1L94,9.4  C94.1,9.5,94.2,9.4,94.2,9.3z"></path>	<path class="st0" d="M99.1,11.5l4-9.3c0-0.1,0.2-0.1,0.2,0l4,9.3c0.1,0.2-0.1,0.5-0.3,0.5h-0.3c-0.1,0-0.2-0.1-0.3-0.2l-0.6-1.4  c0,0-0.1-0.1-0.1-0.1h-5c0,0-0.1,0-0.1,0.1l-0.6,1.4c-0.1,0.1-0.2,0.2-0.3,0.2h-0.3C99.1,11.9,99,11.7,99.1,11.5z M101.1,9.3h4  c0.1,0,0.1-0.1,0.1-0.2l-2-4.7c0-0.1-0.2-0.1-0.2,0l-2,4.7C101,9.3,101.1,9.3,101.1,9.3z"></path></g>  <g>	<defs>		<path id="SVGID_1_" d="M11,32c1-4.3,1.8-8.9,1.8-13.8c1.9,0.8,4.1,3.7,4,5.3c0.5-0.6,0.5-1.8,0.1-2.5c1.1,0.7,1.9,3.3,1.8,5.1   c1.6-4.4-0.1-7.2-2.8-9c1.6-0.3,3.8,0.8,4.3,2c0.1-1.3-0.9-2.3-1.3-2.6c2,0.7,3.4,2.3,3.6,3.1c-0.1-0.8-0.5-1.8-0.8-2.1   c1.3,0.9,2.7,2.3,2.9,3.5c-0.2-7.9-7.3-7.4-8.4-7.8c0.9-0.9,2.3-0.8,4.5-0.4c-0.2-0.4-1.2-0.9-1.5-1.3c0.8-0.2,3.4,0.2,4.2,1.2   c-1.5-4.8-6.5-3.8-9.7-0.3c0.2-4.8-1.9-10.3-6.9-8.4C8.2,4.1,9.6,5.5,10,6.3C9.6,6,8.9,5.8,8.5,6.1c0.7,0,2.5,1.9,2.7,2.9   c-0.5-0.4-1.4-0.9-2.2-0.7c1.2,0.1,2.4,1.8,2.4,4.3c-2.5-1.9-8.7-5.7-9.8,0.2c0.7-1.1,2.9-1.7,4-1.3c-0.9,0.2-1.5,0.5-1.8,1.2   c0.7-0.7,4.1-0.3,5.1,0.6c-1.8,0.3-9.8,0.4-8.4,7.8c-0.1-1.2,1.4-3.4,2.4-3.5c-0.4,0.4-0.6,1.1-0.5,1.9c0.1-0.9,2.2-2.6,3.1-2.8   c-0.6,0.6-1.2,1.6-1.1,2.6c0.7-1.7,2.5-2.1,4.1-2C5.5,19.9,4.3,25.7,7,28.1c-0.9-1.7,0.3-6.2,1.5-7.6c-0.3,1-0.3,2.4,0,3.3   c-0.2-1.6,1.8-5.2,3.3-6.2c0.1,5.3-1.3,10.8-3.2,15.9h0.5h1.6h26V0.8H8.6v1.5c0.5,0,0.9,0,1.3,0.2V2.4h25.4V32H11z"></path>	</defs>	<use xlink:href="#SVGID_1_" style="overflow:visible;fill-rule:evenodd;clip-rule:evenodd;fill:#FFFFFF;"></use>	<clipPath id="SVGID_00000119105936532917091690000003576168651564454324_">		<use xlink:href="#SVGID_1_" style="overflow:visible;"></use>	</clipPath>			<rect x="-1.1" y="0.8" style="clip-path:url(#SVGID_00000119105936532917091690000003576168651564454324_);fill:#FFFFFF;" width="37.7" height="32.7"></rect></g></svg>