<svg xmlns="http://www.w3.org/2000/svg" xmlns:xlink="http://www.w3.org/1999/xlink" xmlns:serif="http://www.serif.com/" width="100%" height="100%" viewBox="0 0 4262 1195" xml:space="preserve" style="fill-rule:evenodd;clip-rule:evenodd;stroke-linejoin:round;stroke-miterlimit:2;">    <g transform="matrix(1,0,0,1,-26537,-13200)">        <g id="Independenttrader-rect-WH-TR-BG" serif:id="Independenttrader rect WH TR BG" transform="matrix(1.21464,0,0,0.481174,26538,13200.9)">            <rect x="0" y="0" width="3507.88" height="2480.33" style="fill:none;"></rect>            <g transform="matrix(1.17348,0,0,4.18946,-356.479,-3955.46)">                <g transform="matrix(0.701575,0,0,0.496067,0,-1818.64)">                    <path d="M1038.51,6351.48C1038.51,6351.48 1005.5,6368.85 969.841,6381.13C933.705,6393.55 916.46,6401.56 916.46,6401.56C916.46,6401.56 929.708,6417.95 928.646,6428.21C927.607,6438.43 906.752,6440.01 968.721,6466.49C1030.7,6492.99 1103.13,6507.81 1114.02,6538.22C1122.33,6561.39 1113.51,6568.73 1113.51,6568.73C1113.51,6568.73 1137.7,6577.02 1158.83,6579.18C1179.96,6581.35 1205.71,6578.15 1205.71,6578.15C1205.71,6578.15 1186.68,6510.04 1123.6,6482.33C1060.5,6454.62 1014.35,6385.41 1038.51,6351.48ZM2075.74,6057.35C1979.17,6056.93 1895.42,5978.78 1914.38,5989.11C1925.73,5984.23 1961.59,5992.09 2002.23,5997.28C1965.44,5959.38 1867.17,5943.62 1867.17,5943.62C1867.17,5943.62 1880.12,5916.66 1765.2,5812.91C1742.59,5792.5 1720.34,5778.54 1699.18,5769.15C1695.44,5767.16 1691.28,5765.47 1686.69,5764.09C1649.5,5750.43 1616.27,5750.62 1591.31,5754.86C1392.34,5761.21 1282.25,5927.99 1048.5,5952.44C922.643,5965.6 858.321,6000.47 829.05,6042.4C810.982,6024.9 767.194,5990.72 717.674,6012.28C652.689,6040.55 610.661,6090.84 582.554,6081.04C554.448,6071.26 573.166,6122.04 686.849,6048.1C761.598,5999.49 799.207,6044.42 815.744,6067.65C797.745,6115.53 814.865,6168.36 833.424,6207.54C800.155,6217.46 761.244,6233.4 757.258,6254.46C750.155,6291.88 781.116,6310.11 733.32,6394.68C680.67,6487.85 696.819,6532.5 695.986,6538.55C695.597,6541.39 717.251,6550.79 740.812,6553.39C767.012,6556.29 795.073,6558.95 795.073,6558.95C789.534,6522.97 744.89,6539.13 753.638,6489.65C762.398,6440.17 868.645,6390.26 1016.32,6336.82C1059.57,6321.17 1089.45,6296.33 1110.18,6269.05C1153.36,6244.33 1204.86,6220.34 1254.52,6210.82C1311.24,6199.92 1364.55,6204.65 1404.82,6212.56C1468.9,6325.53 1645.83,6385.99 1682.79,6396.17C1729.32,6408.98 1709.47,6467.15 1709.47,6467.15C1709.47,6467.15 1733.59,6473.62 1745.58,6473.3C1767.97,6472.66 1779.36,6466.36 1779.36,6466.36C1774.46,6396.91 1730.45,6383.6 1631.58,6306.34C1599.11,6280.94 1593.19,6253.57 1599.78,6228.24C1601.98,6226.14 1604.24,6223.27 1606.59,6219.38C1608.44,6216.32 1611.39,6212.64 1615.05,6208.69C1622.13,6196.37 1631.92,6181.74 1642.63,6165.82C1702.15,6171.8 1686.5,6059.69 1693.86,6101.49C1700.56,6139.57 1704.48,6186.48 1705.13,6194.57C1706.67,6204.26 1706.36,6217.16 1703.48,6234.25C1695.73,6280.22 1730.12,6289.56 1767.92,6278.53C1805.72,6267.49 1797.99,6268.78 1813.51,6239.01C1829.03,6209.25 1881.24,6160.81 1906.96,6145.33C1924.94,6134.49 1931.13,6121.35 1932.25,6109.52C1879.87,6081.06 1825.58,6008.76 1852.61,6038.85C1870.35,6058.57 1901.91,6072.22 1926.01,6080.35C1925.21,6078.83 1924.64,6077.92 1924.64,6077.92C1926.51,6079.36 1928.58,6080.71 1930.89,6081.93C1946.93,6087.08 1958.66,6089.59 1958.66,6089.59C1958.66,6089.59 1959.15,6089.97 1959.98,6090.62C1977.56,6093.49 2002.59,6095.14 2039.86,6095.76C2114.91,6097.03 2154.35,6050.53 2154.35,6050.53C2154.35,6050.53 2132.61,6057.59 2075.74,6057.35ZM1454.93,6296.05C1451.99,6284.73 1449.54,6309.77 1531.47,6366.27C1594.3,6409.61 1628.65,6413.94 1643.11,6454.76C1653.09,6482.92 1643.02,6513.92 1643.02,6513.92C1643.02,6513.92 1622.06,6511.77 1604.54,6507.52C1589.81,6503.97 1574.13,6492.64 1574.13,6492.64C1574.13,6492.64 1620.87,6456.92 1566.65,6430.56C1495.78,6396.12 1460.09,6356.2 1455.93,6302.43C1455.72,6299.66 1455.32,6297.54 1454.93,6296.05Z" style="fill:white;fill-rule:nonzero;"></path>                </g>                <g transform="matrix(8.01255,0,0,5.66548,1573.55,1193.8)">                    <path d="M0,-15.094L0,-17.5L8.244,-17.5L8.244,-15.094L6.111,-14.684L6.111,-0.397L8.244,0.013L8.244,2.406L0,2.406L0,0.013L2.133,-0.397L2.133,-14.684L0,-15.094Z" style="fill:white;fill-rule:nonzero;"></path>                </g>                <g transform="matrix(8.01255,0,0,5.66548,1814.77,1207.43)">                    <path d="M0,-19.906L0,-17.5L-2.133,-17.09L-2.133,0L-6.111,0L-14.15,-13.398L-14.232,-13.385L-14.232,-2.803L-12.1,-2.393L-12.1,0L-20.344,0L-20.344,-2.393L-18.225,-2.803L-18.225,-17.09L-20.344,-17.5L-20.344,-19.906L-14.232,-19.906L-6.193,-6.508L-6.111,-6.521L-6.111,-17.09L-8.244,-17.5L-8.244,-19.906L0,-19.906Z" style="fill:white;fill-rule:nonzero;"></path>                </g>                <g transform="matrix(8.01255,0,0,5.66548,1874.03,1190)">                    <path d="M0,-13.754L0,0.013L2.639,0.013C4.07,0.013 5.191,-0.469 6.002,-1.436C6.814,-2.401 7.219,-3.664 7.219,-5.223L7.219,-8.545C7.219,-10.085 6.814,-11.338 6.002,-12.305C5.191,-13.271 4.07,-13.754 2.639,-13.754L0,-13.754ZM2.844,-16.83C5.277,-16.83 7.283,-16.053 8.859,-14.499C10.438,-12.945 11.225,-10.951 11.225,-8.518L11.225,-5.223C11.225,-2.78 10.438,-0.786 8.859,0.759C7.283,2.304 5.277,3.076 2.844,3.076L-6.111,3.076L-6.111,0.683L-3.992,0.273L-3.992,-14.014L-6.111,-14.424L-6.111,-16.83L2.844,-16.83Z" style="fill:white;fill-rule:nonzero;"></path>                </g>                <g transform="matrix(8.01255,0,0,5.66548,2082.61,1144.23)">                    <path d="M0,2.406L-6.74,2.406L-6.74,8.093L-0.314,8.093L-0.137,5.715L2.898,5.715L2.898,11.156L-12.852,11.156L-12.852,8.763L-10.732,8.353L-10.732,-5.934L-12.852,-6.344L-12.852,-8.75L2.871,-8.75L2.871,-3.295L-0.191,-3.295L-0.369,-5.674L-6.74,-5.674L-6.74,-0.67L0,-0.67L0,2.406Z" style="fill:white;fill-rule:nonzero;"></path>                </g>                <g transform="matrix(8.01255,0,0,5.66548,2171.89,1152.97)">                    <path d="M0,-0.683L3.363,-0.683C4.477,-0.683 5.316,-0.986 5.887,-1.592C6.455,-2.198 6.74,-2.971 6.74,-3.91C6.74,-4.867 6.455,-5.657 5.887,-6.282C5.316,-6.906 4.477,-7.218 3.363,-7.218L0,-7.218L0,-0.683ZM3.363,-10.294C5.643,-10.294 7.439,-9.708 8.758,-8.537C10.074,-7.366 10.732,-5.832 10.732,-3.937C10.732,-2.032 10.074,-0.5 8.758,0.657C7.439,1.815 5.643,2.393 3.363,2.393L0,2.393L0,6.809L2.133,7.219L2.133,9.611L-6.111,9.611L-6.111,7.219L-3.992,6.809L-3.992,-7.478L-6.111,-7.888L-6.111,-10.294L3.363,-10.294Z" style="fill:white;fill-rule:nonzero;"></path>                </g>                <g transform="matrix(8.01255,0,0,5.66548,2371.05,1144.23)">                    <path d="M0,2.406L-6.74,2.406L-6.74,8.093L-0.314,8.093L-0.137,5.715L2.898,5.715L2.898,11.156L-12.852,11.156L-12.852,8.763L-10.732,8.353L-10.732,-5.934L-12.852,-6.344L-12.852,-8.75L2.871,-8.75L2.871,-3.295L-0.191,-3.295L-0.369,-5.674L-6.74,-5.674L-6.74,-0.67L0,-0.67L0,2.406Z" style="fill:white;fill-rule:nonzero;"></path>                </g>                <g transform="matrix(8.01255,0,0,5.66548,2574.37,1207.43)">                    <path d="M0,-19.906L0,-17.5L-2.133,-17.09L-2.133,0L-6.111,0L-14.15,-13.398L-14.232,-13.385L-14.232,-2.803L-12.1,-2.393L-12.1,0L-20.344,0L-20.344,-2.393L-18.225,-2.803L-18.225,-17.09L-20.344,-17.5L-20.344,-19.906L-14.232,-19.906L-6.193,-6.508L-6.111,-6.521L-6.111,-17.09L-8.244,-17.5L-8.244,-19.906L0,-19.906Z" style="fill:white;fill-rule:nonzero;"></path>                </g>                <g transform="matrix(8.01255,0,0,5.66548,2633.63,1190)">                    <path d="M0,-13.754L0,0.013L2.639,0.013C4.07,0.013 5.191,-0.469 6.002,-1.436C6.814,-2.401 7.219,-3.664 7.219,-5.223L7.219,-8.545C7.219,-10.085 6.814,-11.338 6.002,-12.305C5.191,-13.271 4.07,-13.754 2.639,-13.754L0,-13.754ZM2.844,-16.83C5.277,-16.83 7.283,-16.053 8.859,-14.499C10.438,-12.945 11.225,-10.951 11.225,-8.518L11.225,-5.223C11.225,-2.78 10.438,-0.786 8.859,0.759C7.283,2.304 5.277,3.076 2.844,3.076L-6.111,3.076L-6.111,0.683L-3.992,0.273L-3.992,-14.014L-6.111,-14.424L-6.111,-16.83L2.844,-16.83Z" style="fill:white;fill-rule:nonzero;"></path>                </g>                <g transform="matrix(8.01255,0,0,5.66548,2842.21,1144.23)">                    <path d="M0,2.406L-6.74,2.406L-6.74,8.093L-0.314,8.093L-0.137,5.715L2.898,5.715L2.898,11.156L-12.852,11.156L-12.852,8.763L-10.732,8.353L-10.732,-5.934L-12.852,-6.344L-12.852,-8.75L2.871,-8.75L2.871,-3.295L-0.191,-3.295L-0.369,-5.674L-6.74,-5.674L-6.74,-0.67L0,-0.67L0,2.406Z" style="fill:white;fill-rule:nonzero;"></path>                </g>                <g transform="matrix(8.01255,0,0,5.66548,3045.53,1207.43)">                    <path d="M0,-19.906L0,-17.5L-2.133,-17.09L-2.133,0L-6.111,0L-14.15,-13.398L-14.232,-13.385L-14.232,-2.803L-12.1,-2.393L-12.1,0L-20.344,0L-20.344,-2.393L-18.225,-2.803L-18.225,-17.09L-20.344,-17.5L-20.344,-19.906L-14.232,-19.906L-6.193,-6.508L-6.111,-6.521L-6.111,-17.09L-8.244,-17.5L-8.244,-19.906L0,-19.906Z" style="fill:white;fill-rule:nonzero;"></path>                </g>                <g transform="matrix(8.01255,0,0,5.66548,3196.26,1207.43)">                    <path d="M0,-19.906L0,-14.601L-3.063,-14.601L-3.227,-16.83L-6.891,-16.83L-6.891,-2.803L-4.758,-2.393L-4.758,0L-13.016,0L-13.016,-2.393L-10.883,-2.803L-10.883,-16.83L-14.533,-16.83L-14.697,-14.601L-17.746,-14.601L-17.746,-19.906L0,-19.906Z" style="fill:white;fill-rule:nonzero;"></path>                </g>                <g transform="matrix(8.01255,0,0,5.66548,1714.1,1366.06)">                    <path d="M0,-19.906L0,-14.601L-3.063,-14.601L-3.227,-16.83L-6.891,-16.83L-6.891,-2.802L-4.758,-2.392L-4.758,0L-13.016,0L-13.016,-2.392L-10.883,-2.802L-10.883,-16.83L-14.533,-16.83L-14.697,-14.601L-17.746,-14.601L-17.746,-19.906L0,-19.906Z" style="fill:white;fill-rule:nonzero;"></path>                </g>                <g transform="matrix(8.01255,0,0,5.66548,1773.47,1316.34)">                    <path d="M0,-2.352L2.762,-2.352C3.874,-2.352 4.708,-2.588 5.264,-3.063C5.819,-3.536 6.098,-4.219 6.098,-5.114C6.098,-6.006 5.822,-6.719 5.271,-7.252C4.719,-7.786 3.905,-8.053 2.83,-8.053L0,-8.053L0,-2.352ZM2.83,-11.129C5.091,-11.129 6.863,-10.612 8.148,-9.577C9.433,-8.542 10.076,-7.114 10.076,-5.291C10.076,-4.288 9.808,-3.418 9.269,-2.68C8.732,-1.942 7.943,-1.344 6.904,-0.889C8.08,-0.541 8.925,0.035 9.441,0.841C9.955,1.648 10.212,2.648 10.212,3.841L10.212,4.853C10.212,5.291 10.3,5.63 10.472,5.873C10.646,6.114 10.933,6.257 11.333,6.302L11.826,6.371L11.826,8.777L9.761,8.777C8.458,8.777 7.542,8.427 7.014,7.724C6.485,7.023 6.221,6.117 6.221,5.003L6.221,3.869C6.221,2.904 5.963,2.144 5.448,1.593C4.934,1.042 4.206,0.752 3.268,0.724L0,0.724L0,5.974L2.133,6.384L2.133,8.777L-6.111,8.777L-6.111,6.384L-3.992,5.974L-3.992,-8.313L-6.111,-8.723L-6.111,-11.129L2.83,-11.129Z" style="fill:white;fill-rule:nonzero;"></path>                </g>                <g transform="matrix(8.01255,0,0,5.66548,1934.94,1300.38)">                    <path d="M0,3.281L4.566,3.281L2.324,-3.733L2.242,-3.733L0,3.281ZM-7.219,9.201L-5.797,8.996L0.26,-8.313L4.348,-8.313L10.363,8.996L11.785,9.201L11.785,11.594L5.004,11.594L5.004,9.201L6.385,8.955L5.51,6.22L-0.943,6.22L-1.818,8.955L-0.437,9.201L-0.437,11.594L-7.219,11.594L-7.219,9.201Z" style="fill:white;fill-rule:nonzero;"></path>                </g>                <g transform="matrix(8.01255,0,0,5.66548,2088.85,1348.63)">                    <path d="M0,-13.754L0,0.014L2.639,0.014C4.07,0.014 5.191,-0.469 6.002,-1.436C6.814,-2.4 7.219,-3.664 7.219,-5.223L7.219,-8.545C7.219,-10.084 6.814,-11.338 6.002,-12.305C5.191,-13.27 4.07,-13.754 2.639,-13.754L0,-13.754ZM2.844,-16.83C5.277,-16.83 7.283,-16.053 8.859,-14.498C10.438,-12.944 11.225,-10.951 11.225,-8.518L11.225,-5.223C11.225,-2.779 10.438,-0.785 8.859,0.76C7.283,2.305 5.277,3.076 2.844,3.076L-6.111,3.076L-6.111,0.684L-3.992,0.273L-3.992,-14.014L-6.111,-14.424L-6.111,-16.83L2.844,-16.83Z" style="fill:white;fill-rule:nonzero;"></path>                </g>                <g transform="matrix(8.01255,0,0,5.66548,2297.43,1302.86)">                    <path d="M0,2.406L-6.74,2.406L-6.74,8.093L-0.314,8.093L-0.137,5.715L2.898,5.715L2.898,11.156L-12.852,11.156L-12.852,8.763L-10.732,8.353L-10.732,-5.934L-12.852,-6.344L-12.852,-8.75L2.871,-8.75L2.871,-3.295L-0.191,-3.295L-0.369,-5.674L-6.74,-5.674L-6.74,-0.67L0,-0.67L0,2.406Z" style="fill:white;fill-rule:nonzero;"></path>                </g>                <g transform="matrix(8.01255,0,0,5.66548,2386.71,1316.34)">                    <path d="M0,-2.352L2.762,-2.352C3.875,-2.352 4.709,-2.588 5.264,-3.063C5.82,-3.536 6.098,-4.219 6.098,-5.114C6.098,-6.006 5.822,-6.719 5.271,-7.252C4.719,-7.786 3.906,-8.053 2.83,-8.053L0,-8.053L0,-2.352ZM2.83,-11.129C5.092,-11.129 6.863,-10.612 8.148,-9.577C9.434,-8.542 10.076,-7.114 10.076,-5.291C10.076,-4.288 9.809,-3.418 9.27,-2.68C8.732,-1.942 7.943,-1.344 6.904,-0.889C8.08,-0.541 8.926,0.035 9.441,0.841C9.955,1.648 10.213,2.648 10.213,3.841L10.213,4.853C10.213,5.291 10.301,5.63 10.473,5.873C10.646,6.114 10.934,6.257 11.334,6.302L11.826,6.371L11.826,8.777L9.762,8.777C8.459,8.777 7.543,8.427 7.014,7.724C6.486,7.023 6.221,6.117 6.221,5.003L6.221,3.869C6.221,2.904 5.963,2.144 5.449,1.593C4.934,1.042 4.207,0.752 3.268,0.724L0,0.724L0,5.974L2.133,6.384L2.133,8.777L-6.111,8.777L-6.111,6.384L-3.992,5.974L-3.992,-8.313L-6.111,-8.723L-6.111,-11.129L2.83,-11.129Z" style="fill:white;fill-rule:nonzero;"></path>                </g>            </g>            <g id="Layer-1" serif:id="Layer 1">            </g>        </g>    </g></svg>